<svg id="Ebene_1" data-name="Ebene 1" xmlns="http://www.w3.org/2000/svg" xmlns:xlink="http://www.w3.org/1999/xlink" width="116.633" height="115.92" viewBox="0 0 116.633 115.92"><defs><style>.cls-1{fill:none;}.cls-2{clip-path:url(#clip-path);}.cls-3{fill:#fff;}.cls-3,.cls-4{fill-rule:evenodd;}</style><clipPath id="clip-path" transform="translate(0 -0.026)"><rect class="cls-1" width="116.633" height="115.946"/></clipPath></defs><title>sccv-logo-white</title><g class="cls-2"><path class="cls-3" d="M58.317,9.308A48.679,48.679,0,1,1,9.639,57.986,48.678,48.678,0,0,1,58.317,9.308" transform="translate(0 -0.026)"/><path class="cls-4" d="M71.63,51.078v-11.4h4.627v1.647h-2.85v2.989H75.46v1.647H73.407v5.119Zm18.387-3.039v-5.6a2.709,2.709,0,0,1,.744-2.021,2.774,2.774,0,0,1,2.044-.739,2.568,2.568,0,0,1,1.947.757,2.832,2.832,0,0,1,.725,2.047v1.051H93.652v-1.2a1.326,1.326,0,0,0-.231-.855.967.967,0,0,0-1.364.005,1.326,1.326,0,0,0-.231.85v6.106a1.349,1.349,0,0,0,.231.855.954.954,0,0,0,1.364,0,1.346,1.346,0,0,0,.231-.857v-1.49h1.825v1.141a3.17,3.17,0,0,1-.711,2.208,3.021,3.021,0,0,1-4.053.013,3.284,3.284,0,0,1-.7-2.265m-6.764,0v-5.6A2.709,2.709,0,0,1,84,40.415a2.769,2.769,0,0,1,2.042-.739,2.569,2.569,0,0,1,1.948.757,2.827,2.827,0,0,1,.725,2.047v1.051H86.888v-1.2a1.326,1.326,0,0,0-.231-.855.967.967,0,0,0-1.364.005,1.32,1.32,0,0,0-.23.85v6.106a1.343,1.343,0,0,0,.23.855.954.954,0,0,0,1.364,0,1.346,1.346,0,0,0,.231-.857v-1.49h1.825v1.141A3.17,3.17,0,0,1,88,50.291a3.021,3.021,0,0,1-4.053.013,3.284,3.284,0,0,1-.7-2.265m-6.717,0,1.695-.244a2.449,2.449,0,0,0,.092.705,1.717,1.717,0,0,0,.237.52.946.946,0,0,0,.355.309,1.157,1.157,0,0,0,.492.1,1.078,1.078,0,0,0,.788-.3,1.027,1.027,0,0,0,.3-.767q0-.849-1.434-2.216L78.9,46A10.358,10.358,0,0,1,77.1,43.951a3.093,3.093,0,0,1-.405-1.528,2.645,2.645,0,0,1,.8-1.955,2.674,2.674,0,0,1,1.955-.792,2.445,2.445,0,0,1,1.837.738,2.861,2.861,0,0,1,.6.883,2.7,2.7,0,0,1,.221,1.1l-1.729.236a2.195,2.195,0,0,0-.076-.606,1.31,1.31,0,0,0-.2-.445.776.776,0,0,0-.693-.319.9.9,0,0,0-.693.28,1.053,1.053,0,0,0-.258.736c0,.631.557,1.465,1.671,2.495l.1.1a8.293,8.293,0,0,1,1.6,1.856,3.37,3.37,0,0,1,.386,1.616,2.649,2.649,0,0,1-.78,1.967,2.683,2.683,0,0,1-1.972.769,2.8,2.8,0,0,1-2.1-.8,2.874,2.874,0,0,1-.614-.973,3.408,3.408,0,0,1-.223-1.256" transform="translate(0 -0.026)"/><path class="cls-4" d="M20.817,48.056l1.694-.242a2.39,2.39,0,0,0,.093.7,1.7,1.7,0,0,0,.236.518.934.934,0,0,0,.356.307,1.138,1.138,0,0,0,.491.1,1.081,1.081,0,0,0,.788-.294,1.02,1.02,0,0,0,.3-.763q0-.847-1.434-2.207l-.166-.157a10.358,10.358,0,0,1-1.793-2.037,3.071,3.071,0,0,1-.405-1.522,2.63,2.63,0,0,1,.8-1.946,2.677,2.677,0,0,1,1.956-.79,2.445,2.445,0,0,1,1.836.736,2.834,2.834,0,0,1,.6.878,2.67,2.67,0,0,1,.221,1.094l-1.728.235a2.224,2.224,0,0,0-.076-.6,1.3,1.3,0,0,0-.2-.443.776.776,0,0,0-.692-.317.9.9,0,0,0-.693.278,1.045,1.045,0,0,0-.258.732c0,.629.557,1.46,1.67,2.486l.1.1a8.233,8.233,0,0,1,1.606,1.849,3.342,3.342,0,0,1,.386,1.609,2.64,2.64,0,0,1-.78,1.96,2.7,2.7,0,0,1-1.972.765,2.811,2.811,0,0,1-2.1-.8,2.861,2.861,0,0,1-.614-.969,3.406,3.406,0,0,1-.222-1.251m19.707-8.38h1.735L43.5,47.641l1.23-7.965h1.739l-2.037,11.4H42.58ZM34.3,48.039v-5.6a2.711,2.711,0,0,1,.744-2.022,2.77,2.77,0,0,1,2.043-.738,2.573,2.573,0,0,1,1.948.756,2.832,2.832,0,0,1,.725,2.048v1.051H37.932v-1.2a1.321,1.321,0,0,0-.231-.854.966.966,0,0,0-1.363.005,1.317,1.317,0,0,0-.231.849v6.107a1.343,1.343,0,0,0,.231.855.955.955,0,0,0,1.363,0,1.346,1.346,0,0,0,.231-.857v-1.49h1.826v1.141a3.166,3.166,0,0,1-.712,2.208,3.021,3.021,0,0,1-4.053.013,3.289,3.289,0,0,1-.7-2.265m-6.764,0v-5.6a2.711,2.711,0,0,1,.744-2.022,2.77,2.77,0,0,1,2.043-.738,2.573,2.573,0,0,1,1.948.756,2.832,2.832,0,0,1,.725,2.048v1.051H31.169v-1.2a1.327,1.327,0,0,0-.231-.854.967.967,0,0,0-1.364.005,1.317,1.317,0,0,0-.231.849v6.107a1.343,1.343,0,0,0,.231.855.956.956,0,0,0,1.364,0,1.352,1.352,0,0,0,.231-.857v-1.49h1.825v1.141a3.166,3.166,0,0,1-.712,2.208,2.6,2.6,0,0,1-2.026.787,2.589,2.589,0,0,1-2.027-.774,3.289,3.289,0,0,1-.7-2.265" transform="translate(0 -0.026)"/><path class="cls-4" d="M79.768,65.349l0,4.558c0,.475.038.669.659.692l8.049.181c1.166,0,1.092-.88.478-1.48-1.094-1.192-3.244-3.527-3.281-3.567-2.211-2.367-3.607-2.521-6.709-2.565-1.4-.02-1.59-.181-1.636,1.192-.1,2.82-.138,12.168-.142,12.584L78.8,76.8c-.087-8.517-.045-4.446-.135-12.313,2.281-.052,3.624-.141,5.522,1.634,1.244,1.222,2.455,2.5,3.676,3.745l-7.525.161ZM84.4,76.039a2.993,2.993,0,0,0-.572.991.167.167,0,0,1-.15.117L66.62,78.3v.165l17.481.057.575-.007a.63.63,0,0,0,.624-.588,1.919,1.919,0,0,1,.106-.5,2.286,2.286,0,1,1,3.47,2.667,2.63,2.63,0,0,1-3.145-.032c-.5-.35-.355-.261-.239-.185l-.32-.211a1.184,1.184,0,0,0,.329.645c1.712,2.007,5.322.743,5.416-2.207.108-3.417-4.3-4.82-6.521-2.061m1.1,3.834c.136.089.076.049,0,0m8.553-6.082a2.464,2.464,0,0,0-.731-1.561l-2.107-1.5-.841-.605a1.506,1.506,0,0,1-.655,1.3l.817.525,1.743,1.07a1.484,1.484,0,0,1,.749,1.234l.349,2.822c.095.772-.418.975-.861,1.105l-1.392.407,2.062-.115c.757-.049.917-.652.918-1.593ZM84.319,57.463a4.953,4.953,0,0,1,2.43.876l2.058,2.138c1.094,1.166,1.227,1.216-.646,1.652l-4.568,1.063h5.746c2.282,0,2.947-1.191,1.424-3.279-.816-1.119-1.455-1.714-2.369-2.795a5.607,5.607,0,0,0-3.305-1.8c-4.845-1.017-10.411-.194-15.253.7-7.18,1.108-9.839,1.049-17.4,1.243-.22.006-4.617-.1-7.1-.062-1.991.035-2.268,1.117-2.292,1.906l.124,3.469c.2-1.112.257-2.455.429-3.02.237-.777.685-1.108,1.995-1.2.317-.021.684-.028,1.111-.023,4.883.056,9.931.131,14.8-.1,2.835-.133,5.935-.242,8.729-.592a62.6,62.6,0,0,1,14.087-.18M73.823,69a1.04,1.04,0,0,0,1.105-1.126l-.037-3.806c-.008-.782-.589-.921-1.289-.895l-11.114.4,11.324.641.011,3.711-11.4.667Z" transform="translate(0 -0.026)"/><path class="cls-4" d="M62.808,77.517c.028-.5.019-1,.007-1.4a8.457,8.457,0,0,0-.925-3.389l-3.221-6.2c-.935-1.627-2.132-2.9-4.4-2.968l-27.323.621a2.754,2.754,0,0,0-2.5,1.794c-.5,1.243-.25,4.254-.189,5.562l.815-4.442a1.885,1.885,0,0,1,1.878-1.768l27.662.637a2.4,2.4,0,0,1,1.828,1.262l3.908,6.849a7.092,7.092,0,0,1,.687,3.758A1.55,1.55,0,0,1,59.522,79.4l-7.669.6-7.659.665,15.377.316a3.244,3.244,0,0,0,2.94-1.9,2.774,2.774,0,0,0,.154-.469h1.8V77.517ZM42.993,79.585c-.565-.83-1-.866-2.441-.844-1.664.026-1.971.064-2.672,1.378l-.664.012c-.726-1.261-1-1.3-2.642-1.264s-1.894.053-2.588,1.395c-2.641.071-5.1.189-7.734.365,1.716.113,6.255.464,7.965.372.3-.017.369-.27.5-.5.374-.665.579-.793,1.066-.785l1.488.022a.987.987,0,0,1,.833.368,1.8,1.8,0,0,1-1.351,3c-.065,0-.131,0-.2-.01a2.05,2.05,0,0,1-1.393-.66l-.432-.5a1.506,1.506,0,0,0,.427.984,2.435,2.435,0,0,0,3.444.093,2.4,2.4,0,0,0,.815-1.891l.147,0c.879.015.869.126,1.252-.564.276-.5.438-.7.729-.715.361-.02,1.6.024,1.894.033a.744.744,0,0,1,.5.2,1.746,1.746,0,0,1,.386.75,1.623,1.623,0,0,1-.649,1.8,1.749,1.749,0,0,1-.988.355,2.02,2.02,0,0,1-1.576-.621l-.453-.48a1.667,1.667,0,0,0,.6,1.213,2.525,2.525,0,0,0,3.657-.465,2.647,2.647,0,0,0,.106-2.994.263.263,0,0,0-.031-.063M29.43,73.963l11.419.319a1.08,1.08,0,0,0,.993-.647,25.926,25.926,0,0,0,.152-3.805,1.143,1.143,0,0,0-.918-1.111c-.463-.092-11.021.135-11.573.175a.786.786,0,0,0-.656.375c-.3.489-.029,2.073.033,2.612l.3-2.161a.307.307,0,0,1,.321-.29l5.669.246,5.626.187c.032,2.266.012,1.051.061,3.349.014.01-.007.028-.016.03Zm19.855,4.376-3.2.613,3.451.01c.651,0,.816-.56.82-1.068l.084-9.745a.92.92,0,0,0-.576-.842,27.37,27.37,0,0,0-3.77-.02.762.762,0,0,0-.752.951l.306,2.3.248-2.379c.074-.278.178-.208.41-.189l3.134.215.119,9.744c0,.32.015.337-.278.412" transform="translate(0 -0.026)"/><path class="cls-4" d="M53.351,95.888,61.206,83.9c1.457-2.223,2.507-2.734,3.916-.132L71.489,95.53,64.2,84.55Zm-6.494.139c-.119.362-.431,1.639.207,1.773l9.792,2.056c.62.13,1.02-.3,1.076-.929.016-.178-.093-2.548-.148-3.694a5.624,5.624,0,0,0,3.643-2.876,5.124,5.124,0,0,0,.784-2.7c-.672,1.381-1.954,3.638-4.5,4.135-.548.107-1.194-.042-1.432.568-.084.217-.157,2.243-.2,3.536L47.4,97.174ZM63.319,88.6l-.632,10.248c.062.579.437,1.041,1,.9l4.685-1.194c.891-.227.92-.275.9-1.176l-.3-3.32L68.424,97.5l-3.954.374Zm-2.936-5.887-6.8,1.61a3.817,3.817,0,0,0-2.718,1.73l-5.428,7.57c-.945,1.318-1.44,1.791.6,1.785l6.326-.017-6.4-.807,6.791-8.5Z" transform="translate(0 -0.026)"/></g><polygon class="cls-4" points="43.718 25.944 53.451 25.944 53.451 15.422 63.183 15.422 63.183 25.944 72.916 25.944 72.916 35.677 63.183 35.677 63.183 46.199 53.451 46.199 53.451 35.677 43.718 35.677 43.718 25.944"/><g class="cls-2"><path class="cls-3" d="M13.569,94.835l4.493-3.86.535.622-1.93,3.186-.154.235-.21.309.314-.364.227-.231,2.558-2.2.558.649-4.5,3.86-.564-.655,1.762-2.976.033-.056q.183-.3.33-.509l-.348.394-.207.218-2.35,2.018Zm1.087-6.075L12.19,90.529a1.834,1.834,0,0,0-.788,1.009,1.5,1.5,0,0,0,1.222,1.688,1.776,1.776,0,0,0,1.185-.4l2.466-1.77a1.579,1.579,0,0,0,.683-.95,1.288,1.288,0,0,0-.251-1.053,1.388,1.388,0,0,0-.938-.622,1.515,1.515,0,0,0-1.113.327m-1.549,3.415,2.687-1.929a.742.742,0,0,0,.307-.366.481.481,0,0,0-.412-.569.74.74,0,0,0-.442.172l-2.688,1.928a.754.754,0,0,0-.307.367.476.476,0,0,0,.409.57.763.763,0,0,0,.446-.173M9.578,89.418l4.968-3.228.507.781L10.086,90.2Zm2.41-5.825.474.821L8.073,86.949l.458.792,4.389-2.534.474.821.741-.428-1.406-2.435Zm-3.653-.522,2.362-.814.024.049L8.648,83.7ZM5.9,82.943l5.732-1.785.535,1.066L7.3,85.748l-.42-.837,1.065-.74-.413-.824-1.235.4Zm1.169-3.678.176.393L5.2,81.2l.392.865L7.83,80.321a1.207,1.207,0,0,0,.7.17,2.47,2.47,0,0,0,.872-.245,2.034,2.034,0,0,0,1.049-.847,1.345,1.345,0,0,0-.078-1.159l-.553-1.222-5.4,2.441.377.833ZM9.413,78.2l.135.3a.523.523,0,0,1,.026.5,1.113,1.113,0,0,1-.532.385,1.4,1.4,0,0,1-.694.178.484.484,0,0,1-.354-.321l-.149-.328Zm.074-2.943-.216-.628.986.081.338.984Zm-6.344.7,5.6-1.925.774,2.253-.81.278-.476-1.388-1.469.5.344,1L6.3,76.96l-.344-1-1.675.575.477,1.387-.841.289Zm-1.195-4.1.361,1.29a1.379,1.379,0,0,0,.678.946,1.89,1.89,0,0,0,1.3-.008l2.548-.715a1.765,1.765,0,0,0,1.084-.684A1.442,1.442,0,0,0,8,71.506l-.351-1.251Zm1.085.637,4.023-1.129.057.2a.764.764,0,0,1-.016.581.72.72,0,0,1-.466.313l-2.745.77a.774.774,0,0,1-.486.014.421.421,0,0,1-.242-.3Zm4.6-4.018-.116-.654.962.234.18,1.025Zm-6.375-.3,5.834-1.027L7.5,69.492l-.843.148L6.4,68.2l-1.529.268.183,1.042-.843.149-.183-1.042-1.744.307.254,1.445-.876.154Zm32.314,42.186,2.383-5.424,2.181.958-.345.784-1.342-.59-.625,1.421.968.425-.344.784-.968-.426-.712,1.622,1.343.59-.358.814Zm-3.207-3.212a1.934,1.934,0,0,0-.2.658,1.557,1.557,0,0,0,.049.611,1.407,1.407,0,0,0,.774.871,1.35,1.35,0,0,0,1.095.08,1.47,1.47,0,0,0,.832-.773,1.882,1.882,0,0,0,.21-.87,4.368,4.368,0,0,0-.294-1.266l-.023-.071a2.278,2.278,0,0,1-.171-1.59.586.586,0,0,1,.3-.3.456.456,0,0,1,.387.024.393.393,0,0,1,.242.313.681.681,0,0,1-.013.262,1.245,1.245,0,0,1-.11.31l.853.282a1.513,1.513,0,0,0,.162-.581,1.533,1.533,0,0,0-.064-.565,1.228,1.228,0,0,0-.67-.778,1.343,1.343,0,0,0-1.092-.065,1.471,1.471,0,0,0-.838.763,1.734,1.734,0,0,0-.181.832,5.564,5.564,0,0,0,.335,1.4l.039.114a2.019,2.019,0,0,1,.129,1.4.571.571,0,0,1-.323.3.54.54,0,0,1-.435-.037.569.569,0,0,1-.2-.161.5.5,0,0,1-.09-.23.961.961,0,0,1,.016-.306,1.356,1.356,0,0,1,.127-.362Zm-3.148-2,.8.364a1.372,1.372,0,0,0-.166.345.95.95,0,0,0-.051.3.5.5,0,0,0,.064.239.557.557,0,0,0,.183.182.539.539,0,0,0,.427.086.563.563,0,0,0,.356-.263,2.018,2.018,0,0,0,.03-1.406l-.025-.118a5.517,5.517,0,0,1-.175-1.429,1.734,1.734,0,0,1,.273-.806,1.464,1.464,0,0,1,.919-.663,1.343,1.343,0,0,1,1.078.188,1.225,1.225,0,0,1,.577.848,1.549,1.549,0,0,1,0,.568,1.5,1.5,0,0,1-.228.56l-.815-.377a1.256,1.256,0,0,0,.144-.3.734.734,0,0,0,.043-.259.4.4,0,0,0-.206-.338.451.451,0,0,0-.381-.067.579.579,0,0,0-.327.262,2.268,2.268,0,0,0-.011,1.6l.016.073a4.443,4.443,0,0,1,.149,1.291,1.881,1.881,0,0,1-.307.84,1.469,1.469,0,0,1-.914.675,1.35,1.35,0,0,1-1.078-.2,1.4,1.4,0,0,1-.672-.952,1.563,1.563,0,0,1,.021-.614,1.918,1.918,0,0,1,.271-.631m-2.612-.07.745.56L28.9,100.9l-.744-.559Zm.1-7.335-2.683,3.492a1.819,1.819,0,0,0-.457,1.193,1.5,1.5,0,0,0,1.651,1.274,1.79,1.79,0,0,0,1.02-.736l2.7-3.51-.738-.568-2.8,3.637a.627.627,0,0,1-.352.253.416.416,0,0,1-.36-.087.461.461,0,0,1-.188-.335.628.628,0,0,1,.148-.408l2.8-3.637Zm-5.632.791a1.936,1.936,0,0,0-.375.577,1.561,1.561,0,0,0-.125.6,1.408,1.408,0,0,0,.5,1.052,1.352,1.352,0,0,0,1.028.384,1.475,1.475,0,0,0,1.016-.509,1.884,1.884,0,0,0,.445-.777,4.427,4.427,0,0,0,.073-1.3l0-.075a2.274,2.274,0,0,1,.282-1.574.585.585,0,0,1,.367-.2.454.454,0,0,1,.365.131.394.394,0,0,1,.145.368.721.721,0,0,1-.086.248,1.263,1.263,0,0,1-.193.267l.74.51a1.523,1.523,0,0,0,.319-.513,1.539,1.539,0,0,0,.1-.56,1.226,1.226,0,0,0-.425-.934,1.343,1.343,0,0,0-1.03-.368,1.46,1.46,0,0,0-1.018.5,1.726,1.726,0,0,0-.406.748,5.518,5.518,0,0,0-.071,1.438l0,.12a2.022,2.022,0,0,1-.269,1.381.572.572,0,0,1-.4.2.54.54,0,0,1-.406-.158.562.562,0,0,1-.15-.211.5.5,0,0,1-.023-.246.992.992,0,0,1,.1-.29,1.359,1.359,0,0,1,.223-.311Zm24.118,15.431,1.343-5.77,2.32.54-.194.834-1.429-.333-.352,1.512,1.03.24-.194.833-1.03-.239-.4,1.724,1.429.333-.2.866Zm-4.035-1.3,1.269.428a1.377,1.377,0,0,0,1.164-.026A1.889,1.889,0,0,0,42.312,112l.847-2.507a1.767,1.767,0,0,0,.046-1.282,1.441,1.441,0,0,0-.926-.732l-1.231-.416Zm1.138-.537,1.337-3.959.2.067a.763.763,0,0,1,.471.341.716.716,0,0,1,0,.56l-.913,2.7a.774.774,0,0,1-.262.409.42.42,0,0,1-.387.028Zm32.609.336-.843-2.916a1.511,1.511,0,0,1,.064-1.158,1.387,1.387,0,0,1,.9-.676,1.238,1.238,0,0,1,1.051.1,1.686,1.686,0,0,1,.637,1l.151.523-.846.244-.174-.6a.745.745,0,0,0-.243-.411.418.418,0,0,0-.379-.048.413.413,0,0,0-.294.245.733.733,0,0,0,.013.475l.918,3.178a.759.759,0,0,0,.243.412.477.477,0,0,0,.675-.195.759.759,0,0,0-.015-.478l-.257-.89-.532.154-.21-.725,1.378-.4.83,2.869-.42.122-.284-.347a1.023,1.023,0,0,1-.236.491.976.976,0,0,1-.461.27,1.108,1.108,0,0,1-1.015-.146,1.983,1.983,0,0,1-.65-1.086m-3.805,2.385.828-.178-.649-3.028-.091-.287-.18-.494q.111.228.289.534l.033.056,1.772,2.97.845-.183L70.7,108.452l-.836.18.706,3.3.095.311.169.45-.171-.333-.133-.247-1.875-3.218-.8.171Zm-2.506.461-.717-5.881.925-.112.716,5.881Zm-4.068.446-.4-5.911,1.338-.092a1.343,1.343,0,0,1,1.113.334A2.028,2.028,0,0,1,65,111.371a2.322,2.322,0,0,1-.239,1.339,1.024,1.024,0,0,1-.863.543l-.626.043.164,2.4Zm.69-3.32.36-.024a.476.476,0,0,0,.427-.224,1.533,1.533,0,0,0,.071-.746,1.322,1.322,0,0,0-.171-.678.531.531,0,0,0-.482-.15l-.327.022Zm-6.053,3.5-.182-5.921,1.216-.038.7,3.261c.029.12.047.2.056.243a1.066,1.066,0,0,1,.017.176c0,.06.007.147.015.258s.012.182.013.209c0-.066,0-.133,0-.2s0-.144.008-.217.01-.133.015-.175.015-.138.033-.286l.472-3.3,1.237-.039.182,5.922-.855.026-.115-3.739c0-.035,0-.107,0-.216s0-.179,0-.214l.035-.6-.045.329c-.015.126-.03.236-.044.327s-.025.155-.032.187l-.624,3.956-.455.014-.835-3.914-.1-.519-.067-.313.07.568.023.463L58,115.92Zm-2.945-2.331.7.058-.1-2.493-.054-.005Zm-1.381,2.014,1.467-5.822,1.189.1.471,5.985-.932-.078-.077-1.295-.918-.077-.3,1.262Zm-3.594-1.9.32-3.018a1.51,1.51,0,0,1,.5-1.049,1.384,1.384,0,0,1,1.088-.287,1.286,1.286,0,0,1,.954.513,1.58,1.58,0,0,1,.255,1.142l-.06.566-.935-.1.069-.648a.747.747,0,0,0-.07-.473.48.48,0,0,0-.7-.071.744.744,0,0,0-.167.445l-.348,3.289a.761.761,0,0,0,.069.473.476.476,0,0,0,.7.074.763.763,0,0,0,.167-.449l.085-.8.934.1-.065.615a1.772,1.772,0,0,1-.49,1.15,1.5,1.5,0,0,1-2.076-.212,1.846,1.846,0,0,1-.227-1.257m31.471-7.858-.378-.768,2.522-1.242.378.768-.851.419,2.239,4.547-.821.4-2.238-4.547Zm-.943,5.972,2.183-.951-.355-.816-1.345.586-.706-1.623.969-.422-.342-.785-.969.422-.62-1.424,1.345-.585-.342-.785-2.183.951Zm11.857-6.568-3.494-4.784,1.923-1.405.5.691-1.185.866.916,1.254.854-.624.5.691-.854.624,1.045,1.429,1.185-.865.524.718Zm-3.25,2.2,1.125-.728a1.378,1.378,0,0,0,.7-.928,1.892,1.892,0,0,0-.393-1.24l-1.437-2.221a1.765,1.765,0,0,0-.976-.834,1.443,1.443,0,0,0-1.149.271l-1.091.706Zm.288-1.226.389-.252a.418.418,0,0,0,.218-.321.765.765,0,0,0-.156-.459l-1.55-2.395a.719.719,0,0,0-.436-.352.768.768,0,0,0-.56.157l-.176.114Zm25.326-39.013-3.01-.385a1.515,1.515,0,0,1-1.038-.519,1.379,1.379,0,0,1-.263-1.093,1.234,1.234,0,0,1,.505-.926,1.686,1.686,0,0,1,1.168-.189l.539.069-.111.874-.622-.08a.746.746,0,0,0-.474.06.48.48,0,0,0-.086.7.736.736,0,0,0,.442.176l3.28.42a.759.759,0,0,0,.474-.059.475.475,0,0,0,.09-.7.758.758,0,0,0-.445-.176l-.918-.117-.07.549-.749-.1.182-1.423,2.963.378-.055.434-.431.123a1.03,1.03,0,0,1,.356.412.958.958,0,0,1,.065.53,1.109,1.109,0,0,1-.537.873,1.991,1.991,0,0,1-1.255.166m.5,4.54-5.771-1.343.187-.8,3.71-.327.281-.015.373-.013-.479-.039-.321-.046-3.284-.764.194-.834,5.77,1.343-.194.842-3.443.339-.064.007c-.235.02-.437.032-.605.034l.523.047.3.039,3.017.7Zm-.646,2.355.252-.9-5.7-1.6-.252.9Zm-1.381,4.37-5.617-1.881.26-.778,3.724.026.281.011.374.022-.474-.084-.315-.076-3.2-1.071.272-.812,5.618,1.882-.274.82-3.458.013h-.065c-.235,0-.438-.009-.606-.023l.516.1.293.067,2.938.984Zm-1.784,4.127.338-.777-2.84-1.237-.287-.092-.506-.142c.166.029.368.054.6.076l.066.006,3.446.289.344-.793L106.406,77.6l-.342.785,3.092,1.346.307.1.465.125-.37-.055-.279-.036-3.708-.35-.327.752Zm-3.23,1.786.317-.622-2.347-.848-.024.048Zm1.341,2.041L103.954,82.9l.543-1.062,5.717,1.831-.425.833-1.228-.42-.419.821,1.055.757Zm-7.044-.017.492-.746,3.225,1.479.307.144a2.055,2.055,0,0,1,.266.145c.055.036.139.087.253.152s.2.12.261.159l.089.059-.592-.433a2.254,2.254,0,0,1-.258-.2c-.006-.008-.078-.075-.213-.2l-2.636-2.372.493-.747,4.366,4.139-.526.8Zm1.635,4.367.4-.575-2.215-1.148-.031.045Zm1.063,2.2.512-.743-.947-.888.522-.759,1.163.576.531-.771-5.43-2.561-.677.983Zm-3.646.55,1.873,1.645-.6.687-4.451-3.909.885-1.008a1.344,1.344,0,0,1,1.024-.549,2.034,2.034,0,0,1,1.2.606,2.487,2.487,0,0,1,.583.692,1.225,1.225,0,0,1,.132.7l2.51,1.315-.626.715-2.245-1.22Zm-1.935-1.7.217-.248a.524.524,0,0,1,.441-.229,1.129,1.129,0,0,1,.57.326,1.411,1.411,0,0,1,.448.56.481.481,0,0,1-.145.454l-.239.271Zm-.438,4.862.477-.509-2.02-1.464-.038.04Zm.725,2.333.616-.659-.8-1.018.629-.674,1.064.743.639-.683L96.3,93.427l-.814.871ZM95.3,100.5a1.849,1.849,0,0,0,1.091.665,1.5,1.5,0,0,0,1.537-1.411,1.777,1.777,0,0,0-.535-1.131l-.416-.457-.695.633.544.6a.763.763,0,0,1,.225.423.475.475,0,0,1-.519.473.757.757,0,0,1-.4-.262L93.9,97.583a.739.739,0,0,1-.223-.42.481.481,0,0,1,.517-.475.748.748,0,0,1,.4.262l.44.482.694-.634-.384-.42a1.583,1.583,0,0,0-1.023-.568,1.287,1.287,0,0,0-1.017.373,1.383,1.383,0,0,0-.508,1,1.511,1.511,0,0,0,.455,1.067ZM.7,64.736l5.875-.763.307,2.362-.849.11L5.845,64.99l-1.54.2.137,1.049-.849.11L3.457,65.3l-2.638.342Z" transform="translate(0 -0.026)"/><path class="cls-3" d="M116.633,59.782a2.269,2.269,0,0,1-.388,1.416,1.245,1.245,0,0,1-.465.373,1.458,1.458,0,0,1-.628.126,1.278,1.278,0,0,1-1.088-.5,2.37,2.37,0,0,1-.375-1.444V56.172a1.932,1.932,0,0,1,.4-1.293,1.361,1.361,0,0,1,1.1-.472,1.285,1.285,0,0,1,1.053.485,2.02,2.02,0,0,1,.392,1.308v.217h-.966v-.45a.561.561,0,0,0-.141-.4.47.47,0,0,0-.365-.154.483.483,0,0,0-.363.149.554.554,0,0,0-.142.394v1.714a1.338,1.338,0,0,1,.417-.326,1.077,1.077,0,0,1,.485-.118.956.956,0,0,1,.794.355,1.579,1.579,0,0,1,.281,1Zm-1.977-1.174v1.446a.73.73,0,0,0,.147.469.459.459,0,0,0,.376.183.42.42,0,0,0,.355-.173.766.766,0,0,0,.133-.479v-1.36a.62.62,0,0,0-.114-.4.381.381,0,0,0-.312-.143.492.492,0,0,0-.31.117,1.127,1.127,0,0,0-.275.338M2.96,59.9v-.218H4.019v.464a.553.553,0,0,0,.151.406.568.568,0,0,0,.408.15.534.534,0,0,0,.551-.556V58.428a1.263,1.263,0,0,1-.4.3,1.024,1.024,0,0,1-.443.1,1.135,1.135,0,0,1-1.021-.544,3.033,3.033,0,0,1-.348-1.617,2.829,2.829,0,0,1,.418-1.691,1.454,1.454,0,0,1,1.251-.566,1.451,1.451,0,0,1,1.188.5,2.215,2.215,0,0,1,.411,1.444v3.582a1.82,1.82,0,0,1-.437,1.292,1.563,1.563,0,0,1-1.208.473,1.471,1.471,0,0,1-1.153-.484A1.9,1.9,0,0,1,2.96,59.9M5.129,57.5V56.057a.674.674,0,0,0-.155-.468.542.542,0,0,0-.421-.172.459.459,0,0,0-.395.185.875.875,0,0,0-.139.528V57.1a1.147,1.147,0,0,0,.131.611.441.441,0,0,0,.4.208.532.532,0,0,0,.333-.105.762.762,0,0,0,.243-.319M0,56.122v-.706a3.352,3.352,0,0,0,.385-.159,2.5,2.5,0,0,0,.326-.2,2.073,2.073,0,0,0,.489-.5h.721v6.993H.851V56.122Zm110.184,3.4h.931v.291a1.507,1.507,0,0,0,.111.666.37.37,0,0,0,.35.213.42.42,0,0,0,.4-.236,1.692,1.692,0,0,0,.128-.769,2.008,2.008,0,0,0-.181-1.014.7.7,0,0,0-.635-.279h-.124v-.98h.151a.6.6,0,0,0,.533-.247,1.551,1.551,0,0,0,.166-.826,1.684,1.684,0,0,0-.1-.691.316.316,0,0,0-.309-.217.39.39,0,0,0-.349.179,1.192,1.192,0,0,0-.108.585v.266h-.931v-.058a2.516,2.516,0,0,1,.366-1.457,1.171,1.171,0,0,1,1.018-.525,1.068,1.068,0,0,1,.955.5,2.707,2.707,0,0,1,.326,1.479,2.81,2.81,0,0,1-.133.959,1.042,1.042,0,0,1-.418.54,1.081,1.081,0,0,1,.512.559,3.852,3.852,0,0,1-.191,2.683,1.146,1.146,0,0,1-.425.407,1.216,1.216,0,0,1-.59.136,1.244,1.244,0,0,1-1.068-.522,2.448,2.448,0,0,1-.379-1.461Z" transform="translate(0 -0.026)"/><path class="cls-3" d="M5.014,52.683,4.993,51.8a1.41,1.41,0,0,0,.384,0,.983.983,0,0,0,.294-.085.491.491,0,0,0,.188-.162.548.548,0,0,0,.085-.244.542.542,0,0,0-.107-.422.571.571,0,0,0-.391-.207,2.023,2.023,0,0,0-1.281.582l-.095.074a5.5,5.5,0,0,1-1.213.776,1.719,1.719,0,0,1-.844.1,1.46,1.46,0,0,1-1-.541,1.344,1.344,0,0,1-.3-1.052,1.228,1.228,0,0,1,.515-.888,1.548,1.548,0,0,1,.512-.247,1.525,1.525,0,0,1,.6-.037l.014.9a1.218,1.218,0,0,0-.33,0,.721.721,0,0,0-.252.073.393.393,0,0,0-.215.332.448.448,0,0,0,.1.373.578.578,0,0,0,.377.182,2.274,2.274,0,0,0,1.445-.683l.06-.046a4.377,4.377,0,0,1,1.1-.693,1.883,1.883,0,0,1,.891-.088,1.468,1.468,0,0,1,1,.533A1.351,1.351,0,0,1,6.83,51.39a1.408,1.408,0,0,1-.567,1.018,1.56,1.56,0,0,1-.562.247,1.933,1.933,0,0,1-.687.028m.471-3.554L2.5,48.6a1.506,1.506,0,0,1-1.01-.57,1.381,1.381,0,0,1-.209-1.1,1.288,1.288,0,0,1,.58-.915,1.576,1.576,0,0,1,1.157-.173l.561.1-.166.926-.641-.115a.738.738,0,0,0-.477.036.481.481,0,0,0-.121.691.74.74,0,0,0,.432.2l3.257.581a.755.755,0,0,0,.476-.035.474.474,0,0,0,.124-.691.76.76,0,0,0-.437-.2l-.794-.142.165-.925L6,46.366a1.775,1.775,0,0,1,1.112.57,1.5,1.5,0,0,1-.359,2.056,1.847,1.847,0,0,1-1.271.137M1.963,44.2l5.7,1.618.247-.872-2.542-.722.25-.88,2.542.723.25-.881-5.7-1.618-.249.88,2.333.663-.25.88L2.21,43.326Zm.983-3.462.28-.827,3.457.741.478.118.421.126.108.037c-.083-.029-.183-.069-.3-.12-.2-.07-.363-.129-.479-.18s-.215-.1-.3-.144L3.544,38.97l.25-.738,3.478.663.456.1.556.172-.16-.063q-.3-.1-.578-.222c-.071-.03-.184-.083-.34-.158L4.114,37.286l.277-.82,5.317,2.772-.246.726-3.418-.625-.459-.11-.556-.171.718.289c.09.031.162.056.21.077s.1.046.15.073l3,1.53-.244.722Zm7.346-2.882.981-2.17-.81-.367-.6,1.337-1.613-.729.436-.964-.78-.352-.436.963-1.414-.639.6-1.337-.78-.353-.981,2.171ZM11.606,35,6.333,32.3l.425-.829,5.273,2.7Zm.754-1.51-.794-.455L8.834,29.574l-.75,1.3-.793-.456,1.244-2.163.742.427,2.776,3.505.825-1.435.793.456ZM14.1,30.529l1.285-2.006-.749-.48-.792,1.236-1.49-.956.57-.89-.72-.462-.571.89-1.306-.838.791-1.235-.72-.462-1.286,2Zm-1.863-6.288,1.4,1,.21-.294a.481.481,0,0,0,.1-.467,1.386,1.386,0,0,0-.5-.511,1.121,1.121,0,0,0-.6-.266.526.526,0,0,0-.415.273Zm2.1,1.493,2.031,1.444-.53.746L11,24.49l.777-1.093a1.347,1.347,0,0,1,.963-.651,2.029,2.029,0,0,1,1.26.48,2.456,2.456,0,0,1,.651.629,1.218,1.218,0,0,1,.2.687l2.632,1.051-.55.774-2.358-.984Zm3.64-.654L13.493,21.2l.61-.7,4.478,3.879Zm-.067-2.3a1.919,1.919,0,0,0,.57.385,1.567,1.567,0,0,0,.6.134,1.406,1.406,0,0,0,1.06-.482,1.351,1.351,0,0,0,.4-1.022,1.466,1.466,0,0,0-.492-1.023,1.9,1.9,0,0,0-.769-.459,4.442,4.442,0,0,0-1.3-.093H17.9a2.275,2.275,0,0,1-1.569-.307.587.587,0,0,1-.2-.371.455.455,0,0,1,.137-.362.393.393,0,0,1,.37-.14.707.707,0,0,1,.247.091,1.24,1.24,0,0,1,.264.2l.521-.732a1.522,1.522,0,0,0-.507-.327,1.54,1.54,0,0,0-.559-.1,1.225,1.225,0,0,0-.94.409,1.343,1.343,0,0,0-.385,1.024,1.462,1.462,0,0,0,.48,1.026,1.731,1.731,0,0,0,.741.419,5.561,5.561,0,0,0,1.437.094l.12,0a2.02,2.02,0,0,1,1.377.292.573.573,0,0,1,.192.4.543.543,0,0,1-.164.4.561.561,0,0,1-.214.147.5.5,0,0,1-.246.018.952.952,0,0,1-.288-.106,1.387,1.387,0,0,1-.308-.228Zm2.458-2.606a1.841,1.841,0,0,0,1.105.641,1.5,1.5,0,0,0,1.506-1.445,1.774,1.774,0,0,0-.56-1.118l-.427-.448-.68.649.557.584a.755.755,0,0,1,.234.418.475.475,0,0,1-.508.484.745.745,0,0,1-.4-.253L18.9,17.291a.732.732,0,0,1-.231-.415.481.481,0,0,1,.506-.486.747.747,0,0,1,.406.253l.449.472.68-.649-.392-.412a1.587,1.587,0,0,0-1.036-.545,1.3,1.3,0,0,0-1.009.395,1.391,1.391,0,0,0-.485,1.016,1.514,1.514,0,0,0,.479,1.057ZM20.2,14.319l.686-.594,1.587,1.833.692-.6-1.588-1.833.691-.6,3.879,4.478-.691.6-1.731-2-.691.6,1.73,2-.685.593Zm6.758,2.111L28.9,15.05l-.515-.725-1.2.851-1.026-1.443.861-.613-.5-.7-.862.612-.9-1.265,1.2-.85-.5-.7L23.526,11.6Zm.6-6.559.277-.178a.525.525,0,0,1,.487-.1,1.125,1.125,0,0,1,.458.471,1.408,1.408,0,0,1,.276.662.482.482,0,0,1-.266.4l-.3.2Zm1.391,2.169,1.344,2.1-.77.494-3.2-4.987,1.129-.724a1.341,1.341,0,0,1,1.136-.244,2.028,2.028,0,0,1,.99.914,2.474,2.474,0,0,1,.369.828,1.208,1.208,0,0,1-.068.712l2.049,1.958-.8.513-1.82-1.793Zm4.264-1.372a1.839,1.839,0,0,0,.878.928,1.5,1.5,0,0,0,1.853-.957,1.775,1.775,0,0,0-.218-1.231l-.282-.551-.837.429.368.718a.75.75,0,0,1,.106.467.474.474,0,0,1-.625.321.752.752,0,0,1-.316-.358L32.631,7.49a.733.733,0,0,1-.1-.464.479.479,0,0,1,.624-.322.741.741,0,0,1,.316.357l.3.58.837-.428-.26-.507a1.587,1.587,0,0,0-.838-.817,1.29,1.29,0,0,0-1.079.093,1.386,1.386,0,0,0-.754.835,1.511,1.511,0,0,0,.158,1.15Zm3.56-.124L35.506,4.675l1.109-.438,3.076,5.155-.87.344-.643-1.127-.857.338.29,1.266Zm.345-2.419.649-.255-1.2-2.189-.05.02Zm3.106,1.049.8-.272-1.2-3.543-.156-.436L39.437,4.4l.156.281.247.467,1.939,3.5L42.21,8.5l-.555-3.966c0-.033-.01-.095-.024-.188s-.031-.2-.053-.326l-.053-.328.143.588c.011.034.031.1.061.206s.049.173.061.206l1.2,3.544.811-.274L41.9,2.352l-1.173.4.511,3.3c.026.148.044.242.052.284s.021.1.037.172.035.142.055.21.042.132.063.194c-.009-.025-.033-.09-.073-.2s-.071-.185-.09-.242a1.088,1.088,0,0,0-.067-.164c-.022-.038-.062-.11-.125-.216L39.476,3.173l-1.152.389ZM44.9,4.336l.351-.081a.473.473,0,0,0,.386-.289,1.532,1.532,0,0,0-.048-.748,1.312,1.312,0,0,0-.276-.642.532.532,0,0,0-.5-.072l-.321.074Zm-.157,3.386L43.414,1.95l1.306-.3a1.34,1.34,0,0,1,1.152.153A2.029,2.029,0,0,1,46.5,3a2.31,2.31,0,0,1-.024,1.359,1.026,1.026,0,0,1-.766.674L45.1,5.17l.542,2.347Zm3.371-.76L47.076,1.13l.917-.164L49.034,6.8Zm1.867-.352L49.237.733l.813-.1L51.646,4l.112.258L51.9,4.6l-.131-.462L51.7,3.819,51.276.474l.85-.108.746,5.877-.857.111L50.5,3.244l-.028-.058c-.1-.213-.182-.4-.243-.556l.138.507.067.293.39,3.073Zm3.644-1.953L53.4,1.631a1.5,1.5,0,0,1,.3-1.12A1.381,1.381,0,0,1,54.713.032a1.235,1.235,0,0,1,1.01.309,1.68,1.68,0,0,1,.421,1.105l.041.543-.878.067-.048-.625a.745.745,0,0,0-.154-.453.479.479,0,0,0-.7.056.736.736,0,0,0-.084.468l.251,3.3a.757.757,0,0,0,.153.453.475.475,0,0,0,.7-.053.749.749,0,0,0,.083-.471l-.069-.923-.553.042L54.83,3.1l1.431-.109.227,2.979L56.051,6l-.207-.4a1.02,1.02,0,0,1-.332.432.973.973,0,0,1-.506.171,1.109,1.109,0,0,1-.964-.351,1.982,1.982,0,0,1-.414-1.2m5.5-4.595.931.023-.116,4.586a.624.624,0,0,0,.121.417.457.457,0,0,0,.348.16.421.421,0,0,0,.343-.141.625.625,0,0,0,.136-.412L61,.109l.931.024L61.822,4.56a1.791,1.791,0,0,1-.391,1.194A1.5,1.5,0,0,1,59.347,5.7a1.824,1.824,0,0,1-.335-1.233Zm3.593,6.064L63.464.249l.813.1.7,3.658.044.277.051.371-.01-.481.013-.324L65.5.508l.849.108-.747,5.877-.857-.108L64.06,3l-.013-.064c-.045-.231-.077-.431-.1-.6l.007.525-.009.3-.391,3.074Zm4.906-.189.457.082a.422.422,0,0,0,.379-.086.77.77,0,0,0,.2-.443l.5-2.807a.717.717,0,0,0-.078-.555.767.767,0,0,0-.517-.268l-.206-.036Zm-1.045.7L67.619.805l1.279.229a1.439,1.439,0,0,1,1.025.586A1.766,1.766,0,0,1,70.067,2.9L69.6,5.5a1.886,1.886,0,0,1-.559,1.174,1.377,1.377,0,0,1-1.146.2Zm5.5-.378.83-2.92a1.509,1.509,0,0,1,.667-.948,1.386,1.386,0,0,1,1.121-.1,1.291,1.291,0,0,1,.853.668,1.58,1.58,0,0,1,.056,1.169l-.155.548-.9-.257.178-.627a.748.748,0,0,0,.012-.478.481.481,0,0,0-.676-.189.74.74,0,0,0-.24.41l-.9,3.182a.755.755,0,0,0-.012.478.476.476,0,0,0,.676.192.764.764,0,0,0,.241-.415l.22-.776.9.257-.169.595A1.778,1.778,0,0,1,74.1,8.1a1.5,1.5,0,0,1-2.009-.564,1.841,1.841,0,0,1-.01-1.277m2.693,2.326.839.331.652-1.123.858.338-.3,1.262.871.344,1.27-5.868-1.11-.437Zm1.9-1.532,1.215-2.181.051.02-.618,2.417Zm4.469-1.364-.708,1.568.328.148a.479.479,0,0,0,.477.007,1.4,1.4,0,0,0,.405-.592,1.12,1.12,0,0,0,.145-.64c-.026-.144-.141-.262-.347-.355ZM80.086,8.037l-1.027,2.271-.833-.377,2.44-5.4,1.222.553a1.345,1.345,0,0,1,.825.819,2.033,2.033,0,0,1-.229,1.329,2.458,2.458,0,0,1-.492.76,1.217,1.217,0,0,1-.635.331l-.525,2.785-.866-.39.512-2.5Zm.992,3.2,3.569-4.829,1.061.544-1.837,5.715-.832-.426.421-1.228-.821-.419-.758,1.054ZM83.121,9.9l.622.318.851-2.346-.049-.025Zm4.124-2.142-2.306,5.559.8.515L89.824,9.41l-.754-.483L86.733,11.6c-.122.137-.188.209-.2.215a2.45,2.45,0,0,0-.194.261l-.424.6.057-.09c.039-.06.091-.148.155-.263s.113-.2.149-.255a2.048,2.048,0,0,0,.142-.268l.14-.309L88,8.24Zm-.455,6.708L91.018,10.2l.972.692-2.642,5.391-.762-.543.593-1.153-.751-.534-.9.933Zm2.215-1.029,1.706-1.826.043.032-1.18,2.2Zm.8,3.2,3.66-4.658.645.507-1.276,3.5-.1.261-.146.344.238-.418.178-.271,2.083-2.652.673.53-3.66,4.657-.681-.532,1.151-3.262.022-.061q.12-.332.225-.563l-.264.454-.162.254-1.914,2.435ZM92.82,19.1l.613.585,2.138-2.242.185-.237.307-.426q-.126.219-.278.539l-.027.059L94.3,20.512l.627.595,4.088-4.288-.62-.591L96.07,18.669l-.2.253-.276.393.178-.328.13-.249,1.6-3.363-.593-.565Zm2.79,2.717.643.674L100.54,18.4l-.642-.674Zm1.3,1.382,4.479-3.878.536.619-1.916,3.194-.153.236-.209.31.313-.365.226-.233,2.549-2.208.56.647L98.817,25.4l-.567-.652L100,21.761l.033-.056c.121-.2.231-.372.328-.51l-.346.4-.207.218-2.341,2.028Zm3.7,2a1.989,1.989,0,0,0-.81.973,1.106,1.106,0,0,0,.2,1.006.958.958,0,0,0,.406.346,1.031,1.031,0,0,0,.541.061l-.232.382.253.357,2.434-1.732-.831-1.169-.615.438.321.451-.755.537a.752.752,0,0,1-.446.171.474.474,0,0,1-.407-.572.756.756,0,0,1,.309-.366l2.7-1.916a.734.734,0,0,1,.444-.17.48.48,0,0,1,.409.571.748.748,0,0,1-.308.365l-.511.363.511.718.443-.315a1.686,1.686,0,0,0,.73-.931,1.236,1.236,0,0,0-.257-1.024,1.379,1.379,0,0,0-.934-.624,1.512,1.512,0,0,0-1.115.322Zm6.731,1.951.446.774-2.769,2.219c-.087.069-.177.138-.266.209a2.075,2.075,0,0,1-.25.173c-.057.033-.14.085-.249.158s-.2.126-.259.162l-.092.053.651-.335a2.261,2.261,0,0,1,.293-.142c.009,0,.1-.036.272-.1l3.3-1.291.446.776-5.659,2.044-.475-.828Zm-3.317,6.127,1.086,2.119.792-.405-.669-1.306,1.576-.807.482.941.762-.39-.482-.941,1.381-.708.67,1.306.761-.39-1.086-2.12Zm6.391,1.548.136.3a.523.523,0,0,1,.026.5,1.113,1.113,0,0,1-.532.385,1.406,1.406,0,0,1-.7.177.483.483,0,0,1-.353-.32l-.149-.329Zm-2.347,1.062-2.271,1.026-.377-.833,5.4-2.441.553,1.222a1.345,1.345,0,0,1,.078,1.159,2.032,2.032,0,0,1-1.05.847,2.464,2.464,0,0,1-.871.246,1.221,1.221,0,0,1-.7-.171L106.6,38.683l-.393-.865,2.039-1.541Zm2.341,3.206.118.35a.452.452,0,0,0,.326.3.8.8,0,0,0,.273.017,1.48,1.48,0,0,0,.339-.076,1.035,1.035,0,0,0,.532-.33.538.538,0,0,0,.032-.5l-.094-.279Zm-2.465.834.127.374a.477.477,0,0,0,.335.345,1.6,1.6,0,0,0,1.256-.443.593.593,0,0,0,.03-.556l-.094-.28Zm-1.1-.584.433,1.277a1.432,1.432,0,0,0,.722.922,1.718,1.718,0,0,0,1.248-.045,1.973,1.973,0,0,0,.778-.447,1.341,1.341,0,0,0,.361-.688,1.566,1.566,0,0,0,.7.272,1.816,1.816,0,0,0,.785-.1,1.55,1.55,0,0,0,.951-.746,1.519,1.519,0,0,0,.024-1.195l-.388-1.146Zm1.028,3.016,5.965-.68.326,1.147-5.433,2.553-.256-.9,1.185-.528-.252-.887-1.288.164Zm2.373.582.19.672,2.3-.976-.015-.053Zm-1.407,3,.191.826,3.018-.7.285-.1.491-.188c-.151.077-.327.177-.529.3l-.055.034-2.942,1.818.2.842,5.772-1.332-.192-.834-3.285.758-.309.1-.447.176.329-.176.245-.137,3.189-1.925-.185-.8Zm1.756,4.605.059.46a.423.423,0,0,0,.195.337.774.774,0,0,0,.482.057l2.829-.36a.719.719,0,0,0,.506-.24.763.763,0,0,0,.1-.573l-.026-.208Zm-.98-.789,5.877-.747.164,1.289a1.447,1.447,0,0,1-.254,1.153,1.763,1.763,0,0,1-1.173.518L111.6,52.3a1.891,1.891,0,0,1-1.288-.183,1.377,1.377,0,0,1-.532-1.035Z" transform="translate(0 -0.026)"/></g></svg>