<svg xmlns="http://www.w3.org/2000/svg" viewBox="0 0 160.54 62.36"><defs><style>.cls-1{fill:none;}.cls-2{fill:#039;}</style></defs><title>BAI_en_100_3c</title><g id="Schutzraum_Baloise" data-name="Schutzraum Baloise"><rect class="cls-1" width="160.54" height="62.36"/></g><g id="Logo"><g id="Bildzeichen"><polygon class="cls-2" points="36.15 32.8 40.64 37.29 31.18 46.77 15.59 31.18 31.18 15.59 45.18 29.6 51.76 29.6 51.76 35.79 42.17 35.79 31.18 24.8 24.7 31.29 31.18 37.77 36.15 32.8 36.15 32.8"/></g><g id="Baloise"><path class="cls-2" d="M58.89,27.69h.52c1.66,0,4.18-.23,4.18,2.13,0,2.16-2.54,2.08-4.05,2.08h-.65Zm2.76,8.1c3.58,0,7.08-1.35,7.08-5.45,0-2.73-1.19-4.62-4-5V25.3a4.09,4.09,0,0,0,2.16-4c0-3.75-2.33-5.09-5.82-5.09H53.79V35.79ZM58.89,20.06h.37c1.38,0,3,.11,3,1.92s-1.41,1.92-2.76,1.92h-.58Z"/><path class="cls-2" d="M77.88,26.12a2.9,2.9,0,0,1,3,3,3,3,0,0,1-6.09,0A2.9,2.9,0,0,1,77.88,26.12Zm7.6-3.68H80.75v1.31A5.44,5.44,0,0,0,76.62,22,6.79,6.79,0,0,0,70,29.1a6.86,6.86,0,0,0,6.72,7.12,4.66,4.66,0,0,0,4-1.93h.06v1.5h4.73Z"/><path class="cls-2" d="M92.59,35.79H87.86V14.2h4.73Z"/><path class="cls-2" d="M102.1,26.12a2.89,2.89,0,0,1,3,3,3,3,0,0,1-6.06,0A2.89,2.89,0,0,1,102.1,26.12Zm0-4.11c-4.28,0-8,2.58-8,7.12s3.78,7.09,8,7.09,8-2.58,8-7.09S106.38,22,102.1,22Z"/><path class="cls-2" d="M116.35,35.79h-4.73V22.44h4.73Zm.29-18.47A2.66,2.66,0,1,1,114,14.67,2.66,2.66,0,0,1,116.64,17.32Z"/><path class="cls-2" d="M127.51,25.88a5.88,5.88,0,0,0-2.55-.65c-.55,0-1.51.23-1.51.91,0,.91,1.51,1,2.16,1.17,2.21.44,3.88,1.48,3.88,4,0,3.51-3.2,5-6.33,5a10.32,10.32,0,0,1-5.37-1.53l1.72-3.3a7.55,7.55,0,0,0,3.73,1.35c.61,0,1.52-.28,1.52-1,0-1-1.52-1.09-3-1.48s-3-1.12-3-3.51c0-3.28,3-4.73,5.89-4.73a10.69,10.69,0,0,1,4.4.85Z"/><path class="cls-2" d="M135.07,27.17a2.85,2.85,0,0,1,5.49,0ZM145,29.41c0-4.54-2.68-7.4-7.31-7.4-4.34,0-7.38,2.68-7.38,7.11,0,4.6,3.3,7.1,7.72,7.1,3,0,6-1.43,6.79-4.58h-4.55A2.38,2.38,0,0,1,138,32.86a2.65,2.65,0,0,1-3-3h10Z"/></g><g id="Insurance"><path class="cls-2" d="M55.52,46.77H53.79V40.12h1.73Z"/><path class="cls-2" d="M58.42,42.82h0a1.6,1.6,0,0,1,1.46-.73c1.22,0,1.7.77,1.7,1.88v2.8H60V44.56c0-.43.07-1.19-.73-1.19s-.84.49-.84,1.05v2.35H56.81V42.24h1.61Z"/><path class="cls-2" d="M65.88,43.4a2,2,0,0,0-.86-.22c-.19,0-.51.08-.51.31s.51.36.73.4c.75.15,1.31.5,1.31,1.34,0,1.19-1.08,1.68-2.14,1.68a3.5,3.5,0,0,1-1.83-.52l.59-1.11a2.53,2.53,0,0,0,1.27.45c.2,0,.51-.09.51-.34s-.51-.37-1-.5a1.14,1.14,0,0,1-1-1.2c0-1.1,1-1.6,2-1.6a3.63,3.63,0,0,1,1.49.29Z"/><path class="cls-2" d="M69.24,42.24v2.41c0,.58.14,1,.8,1s.81-.4.81-1V42.24h1.61V45c0,1.49-1,1.95-2.42,1.95s-2.41-.46-2.41-1.95V42.24Z"/><path class="cls-2" d="M75.28,43h0a1.58,1.58,0,0,1,1.46-.8h.31v1.54a1.33,1.33,0,0,0-.68-.15c-.89,0-1.11.59-1.11,1.37v1.83H73.67V42.24h1.61Z"/><path class="cls-2" d="M80.37,43.49a1,1,0,0,1,1,1,1,1,0,0,1-2.07,0A1,1,0,0,1,80.37,43.49ZM83,42.24H81.35v.44a1.86,1.86,0,0,0-1.4-.59,2.41,2.41,0,0,0,0,4.82,1.6,1.6,0,0,0,1.37-.65h0v.5H83Z"/><path class="cls-2" d="M85.83,42.82h0a1.58,1.58,0,0,1,1.45-.73c1.22,0,1.71.77,1.71,1.88v2.8H87.4V44.56c0-.43.07-1.19-.73-1.19s-.84.49-.84,1.05v2.35H84.22V42.24h1.61Z"/><path class="cls-2" d="M93.61,43.72a1.4,1.4,0,0,0-.83-.32,1.08,1.08,0,0,0-1.1,1.1,1.06,1.06,0,0,0,1.13,1.1,1.24,1.24,0,0,0,.8-.3v1.35a2.47,2.47,0,0,1-1.13.26A2.39,2.39,0,0,1,90,44.55a2.43,2.43,0,0,1,2.53-2.46,2.17,2.17,0,0,1,1.06.27Z"/><path class="cls-2" d="M96.19,43.85a1,1,0,0,1,1.87,0Zm3.36.76a2.5,2.5,0,0,0-5-.1,2.36,2.36,0,0,0,2.62,2.4,2.2,2.2,0,0,0,2.31-1.55H97.94a.8.8,0,0,1-.77.42.89.89,0,0,1-1-1h3.38Z"/></g></g></svg>