<?xml version="1.0" encoding="UTF-8"?>
<svg width="165px" height="40px" viewBox="0 0 165 40" version="1.1" xmlns="http://www.w3.org/2000/svg" xmlns:xlink="http://www.w3.org/1999/xlink">
    <title>atom/logo/default</title>
    <defs>
        <polygon id="path-1" points="0 0.113176592 45.7739931 0.113176592 45.7739931 21.5073529 0 21.5073529"></polygon>
    </defs>
    <g id="atom/logo/default" stroke="none" stroke-width="1" fill="none" fill-rule="evenodd">
        <g id="Group-18">
            <path d="M14.2721732,8.73424224 L14.7479902,9.65932394 L17.6952941,6.51075368 L15.8985008,4.76812704 L12.2018913,8.46473652 L13.8303431,8.46473652 C14.0167402,8.46473652 14.1872059,8.56882149 14.2721732,8.73424224" id="Fill-1" fill="#36D8DE"></path>
            <path d="M27.6988419,6.84289624 C27.8379759,6.64826797 28.0968607,6.58002859 28.3137929,6.68172386 L33.4885682,9.10355801 L26.8380167,1.22947712 L22.627355,5.42128676 L26.2068689,8.93203023 L27.6988419,6.84289624 Z" id="Fill-3" fill="#57C5D0"></path>
            <path d="M15.8983681,4.7682598 L17.6951614,6.51062092 L14.7478574,9.6594567 L14.2720404,8.734375 C14.1870731,8.56868873 14.0166074,8.46486928 13.8302104,8.46486928 L12.2017586,8.46486928 L15.8983681,4.7682598 Z M19.6390543,8.39609886 L23.1280249,11.7788603 L16.2408926,11.7788603 L19.6390543,8.39609886 Z M26.8379105,1.22963644 L33.488462,9.1034518 L28.3139522,6.68161765 C28.0967545,6.57992239 27.8381352,6.64816176 27.6987357,6.84279003 L26.2067627,8.93218954 L22.6275143,5.42118056 L26.8379105,1.22963644 Z M6.33396855,12.9275123 L3.19840891,16.0628064 C3.00431168,16.2569036 3.00431168,16.5715482 3.19840891,16.7656454 C3.39250613,16.9594771 3.70688521,16.9594771 3.90098243,16.7656454 L8.86413603,11.8022263 L8.8649326,11.8016953 L11.2079065,9.45845588 L13.5272488,9.45845588 L14.1868076,10.7411969 C14.2608885,10.8851103 14.4000225,10.9836193 14.5601328,11.0061887 C14.5829677,11.009375 14.6060682,11.0109681 14.6286377,11.0109681 C14.7651164,11.0109681 14.8968158,10.9546773 14.9913419,10.8535131 L18.4086213,7.20257353 L18.9258599,7.70414624 L14.6870527,11.9235703 C14.5444669,12.0653595 14.5014522,12.2796364 14.5781883,12.4652369 C14.65519,12.6513685 14.8362766,12.7727124 15.0375429,12.7727124 L24.353944,12.7727124 C24.5562725,12.7727124 24.7384212,12.6500408 24.8143607,12.4625817 C24.8900347,12.274857 24.8448958,12.060049 24.6993893,11.9193219 L20.343752,7.69458742 L21.9230821,6.12269199 L25.9253084,10.0481822 C26.0291279,10.150143 26.1693239,10.2011234 26.3166891,10.1883783 C26.4611336,10.1756332 26.5930984,10.1004902 26.6778002,9.98233252 L28.2672202,7.75698529 L35.0207945,10.9175041 L39.9340298,16.7345792 C40.0322733,16.8511438 40.1724694,16.9110192 40.3137275,16.9110192 C40.4271058,16.9110192 40.5410151,16.8726511 40.6339481,16.7937908 C40.8437112,16.6166871 40.8702635,16.3031046 40.6928942,16.093607 L35.6997365,10.1820057 L35.6992055,10.1812092 L27.24894,0.176572712 C27.1597243,0.0703635621 27.0296181,0.0066380719 26.8907496,0.000796568627 C26.7518811,-0.0066380719 26.6175266,0.0472630719 26.5190176,0.14497549 L19.6300266,7.00290033 L16.2385029,3.71413399 C16.0438746,3.5250817 15.7337439,3.52694036 15.5415053,3.71970997 L11.4630739,7.79814134 L6.33396855,12.9275123 Z" id="Fill-5" fill="#242D3C"></path>
            <path d="M31.0069914,25.1253676 C34.9502717,25.1941381 37.8731475,25.2830882 38.5844833,25.3823938 C39.3964522,25.4957721 40.067694,25.634906 40.6669792,25.8744077 L41.7792545,26.5060866 C42.3395078,26.934906 42.8684293,27.5331291 43.4416932,28.3894404 C43.6081761,29.5893382 43.7255372,31.0993668 43.7433272,32.9920139 L37.6517014,32.9920139 C37.2685519,32.0135621 36.5457986,31.2451389 35.6188583,30.8625204 C34.5971262,30.4411356 32.8948591,30.2905842 31.570962,30.9541258 C30.7305821,31.3755106 30.1230658,32.082598 29.7970037,33.0124592 L11.2998836,33.0124592 C11.0633027,32.2514706 10.5957169,31.6354575 9.92367851,31.2077002 C9.84402165,31.1572508 9.75161969,31.129902 9.65709355,31.129902 L5.5534375,31.1285743 C5.46130106,31.1285743 5.37049224,31.1543301 5.29189747,31.2029208 C4.6190625,31.6187296 4.13448325,32.2520016 3.89869894,33.0124592 L2.38150123,33.0124592 C2.27051266,31.6752859 1.98481005,27.6475694 2.31326185,25.0751838 C7.72143178,24.9217116 21.0634252,24.9657884 30.0131393,25.1089052 L31.0069914,25.1253676 Z" id="Fill-7" fill="#57C5D0"></path>
            <path d="M38.5694547,18.7107864 C39.0505821,18.8469996 39.4937398,19.072694 39.8434334,19.2853779 C39.3129187,19.2848468 12.3174734,19.2543117 3.9864277,18.9139114 C4.40542279,18.6377676 5.20677083,18.3770241 6.7733558,18.2344383 C14.0282373,17.5515135 34.1376123,17.5666483 38.5694547,18.7107864" id="Fill-9" fill="#57C5D0"></path>
            <path d="M7.39282067,37.1732026 C6.65227737,37.1052288 6.06600286,36.82404 5.78348652,36.4002655 C5.41679943,35.8503676 5.35387051,35.03654 5.63691789,34.5076185 C5.81534926,34.1743873 6.10158292,34.0052492 6.48818423,34.0052492 L10.4338542,34.0052492 C10.501297,35.0479575 10.0796467,36.0800449 9.6229473,36.550817 C9.23979779,36.945915 8.51120302,37.1862132 7.73932802,37.1880719 L7.71596201,37.1880719 C7.60869077,37.1878064 7.50062296,37.183027 7.39282067,37.1732026" id="Fill-11" fill="#57C5D0"></path>
            <path d="M36.8640278,33.9941769 C37.0294485,34.9258967 36.7899469,35.8459334 36.2538562,36.3374163 C35.2148652,37.29144 34.1025899,37.2141728 33.5335743,37.0830045 C32.6910703,36.8897038 31.9643342,36.3530821 31.7243015,35.74769 C31.4940931,35.1675225 31.47471,34.6473632 31.6725245,34.3566156 C31.840335,34.1099449 32.1945425,33.9846181 32.7253227,33.9846181 L36.8621691,33.9846181 C36.8627002,33.9878043 36.8634967,33.9907251 36.8640278,33.9941769" id="Fill-13" fill="#57C5D0"></path>
            <g id="Group-17" transform="translate(0.000000, 16.674571)">
                <mask id="mask-2" fill="white">
                    <use xlink:href="#path-1"></use>
                </mask>
                <g id="Clip-16"></g>
                <path d="M30.9647202,8.44973448 C34.9080004,8.5185049 37.8308762,8.60745507 38.542212,8.70676062 C39.354181,8.82013889 40.0254228,8.95927288 40.6247079,9.19877451 L41.7369833,9.83045343 C42.2972365,10.2592729 42.8261581,10.8574959 43.399422,11.7138072 C43.5659048,12.9137051 43.6832659,14.4237337 43.701056,16.3163807 L37.6096957,16.3163807 C37.2262806,15.3379289 36.5035274,14.5695057 35.576587,14.1868873 C34.554855,13.7655025 32.8528533,13.614951 31.5289563,14.2784926 C30.6885764,14.6998775 30.08106,15.4069649 29.7547324,16.336826 L11.2578779,16.336826 C11.0210315,15.5758374 10.5534457,14.9598243 9.88140727,14.532067 C9.80175041,14.4816176 9.70934845,14.4542688 9.6148223,14.4542688 L5.51116626,14.4529412 C5.41902982,14.4529412 5.32848652,14.4786969 5.24989175,14.5272876 C4.57705678,14.9430964 4.09221201,15.5763685 3.8564277,16.336826 L2.33922998,16.336826 C2.22850694,14.9996528 1.94280433,10.9719363 2.2709906,8.39955065 C7.67916054,8.24607843 21.021154,8.29015523 29.9711336,8.43327206 L30.9647202,8.44973448 Z M10.4339604,17.3306781 C10.5011377,18.3733864 10.0797529,19.4054739 9.62305351,19.8762459 C9.239904,20.2710784 8.51130923,20.5116422 7.73943423,20.5135008 L7.7158027,20.5135008 C7.60879698,20.5132353 7.50072917,20.5084559 7.39292688,20.4986315 C6.65238358,20.4306577 6.06610907,20.1492034 5.78359273,19.7256944 C5.41664011,19.1757966 5.35397672,18.361969 5.6370241,17.8330474 C5.81518995,17.4998162 6.10142361,17.3306781 6.48802492,17.3306781 L10.4339604,17.3306781 Z M10.3827145,20.5135008 C11.0738705,19.7628676 11.485962,18.501634 11.4294056,17.3306781 L30.1235437,17.3306781 C30.3505658,17.3306781 30.5491769,17.1766748 30.6052022,16.9568219 C30.8194792,16.1172386 31.2798958,15.5147672 31.9742382,15.1666667 C33.0907618,14.6066789 34.5136989,14.8233456 35.1974203,15.1055964 C35.7544873,15.3352737 36.2119833,15.7632966 36.5149449,16.3163807 L32.7254024,16.3163807 C31.6290584,16.3163807 31.1006679,16.75529 30.8505453,17.1235703 C30.4618199,17.695241 30.4437643,18.5393382 30.8003615,19.4391953 C30.9578166,19.8364175 31.2392708,20.201777 31.5979922,20.5135008 L10.3827145,20.5135008 Z M31.7241156,19.0730392 C31.4941728,18.4926062 31.4747896,17.9727124 31.6726042,17.6822304 C31.8404146,17.4352941 32.1946221,17.3099673 32.7254024,17.3099673 L36.8622488,17.3099673 C36.8627798,17.3131536 36.8635764,17.3163399 36.8641074,17.3195261 C37.0295282,18.2512459 36.789761,19.1712827 36.2539359,19.6627655 C35.2149449,20.6167892 34.102404,20.5395221 33.533654,20.4083538 C32.6911499,20.2153186 31.9644138,19.6784314 31.7241156,19.0730392 L31.7241156,19.0730392 Z M42.9947651,9.62015931 C42.5043444,9.1254902 42.006489,8.76331699 41.4701328,8.49115605 L40.2266891,8.02383578 C39.7524653,7.89558824 39.2429269,7.80106209 38.6794873,7.72246732 C37.955672,7.6213031 34.9751777,7.53049428 30.9647202,7.46013072 L30.9647202,3.57871732 C33.7888215,3.59093137 36.1907414,3.59756944 37.7825511,3.60102124 L38.9489931,3.60341095 C39.2169056,3.60367647 39.4322447,3.60420752 39.5835927,3.60447304 C40.114373,4.41856618 41.8875347,7.13778595 42.1724408,7.5655433 C42.3758313,7.87036356 42.6979105,8.4871732 42.9947651,9.62015931 L42.9947651,9.62015931 Z M39.8432741,2.61088644 C39.3127594,2.61035539 12.3175797,2.57982026 3.98653391,2.23915441 C4.405529,1.96301062 5.20687704,1.70253268 6.77346201,1.5599469 C14.028078,0.876756536 34.137453,0.892156863 38.5695609,2.03629493 C39.0504228,2.17224265 39.493846,2.39820261 39.8432741,2.61088644 L39.8432741,2.61088644 Z M3.43477737,3.21017157 C5.17076593,3.29142157 7.94096609,3.35620915 11.2005249,3.40772059 L12.194377,3.42258987 C13.760962,3.44542484 15.4212766,3.46560458 17.1208885,3.48312908 L18.1147406,3.49295343 C19.8863092,3.5099469 21.6873509,3.52455065 23.4565298,3.53703023 L24.4501164,3.5436683 C26.3701123,3.55614788 28.2372692,3.56623775 29.9711336,3.57446895 L29.9711336,7.44340278 C28.2595731,7.4157884 26.3910886,7.39215686 24.4501164,7.37224265 L23.4565298,7.36268382 C21.7019547,7.34648693 19.9017096,7.33374183 18.1147406,7.32497958 L17.1208885,7.32046569 C15.4390666,7.31356209 13.7806107,7.31037582 12.194377,7.31117239 L11.2005249,7.31223448 C7.63189747,7.31807598 4.50828636,7.34595588 2.44172181,7.40091912 C2.8559375,5.30833333 3.14482639,4.26164216 3.35883783,3.48764297 C3.38592116,3.38939951 3.41034926,3.29965278 3.43477737,3.21017157 L3.43477737,3.21017157 Z M-2.65522876e-05,16.8338848 C-2.65522876e-05,17.1081699 0.222481618,17.3306781 0.496766748,17.3306781 L1.88332721,17.3306781 L4.24515319,17.3306781 C4.48465482,17.3306781 4.69016953,17.1596814 4.73371528,16.9238971 C4.87523897,16.1560049 5.29396855,15.7032884 5.65959355,15.4467933 L9.46294322,15.4481209 C9.81874387,15.7043505 10.0473591,16.0200572 10.1931311,16.336826 L6.48802492,16.336826 C5.73951593,16.336826 5.10996119,16.7112132 4.76079861,17.3638685 C4.30303717,18.2193832 4.3834906,19.4174224 4.95675449,20.2769199 C5.01171773,20.3594975 5.07305351,20.4380923 5.13969975,20.5135008 L2.443846,20.5135008 C2.16956087,20.5135008 1.9470527,20.7357435 1.9470527,21.0102941 C1.9470527,21.2848448 2.16956087,21.5073529 2.443846,21.5073529 L7.72270629,21.5073529 L7.72642361,21.5073529 L7.73040645,21.5073529 L43.701056,21.5073529 C43.9753411,21.5073529 44.1981148,21.2848448 44.1981148,21.0102941 C44.1981148,20.7357435 43.9753411,20.5135008 43.701056,20.5135008 L36.7817953,20.5135008 C36.8295895,20.4728758 36.8795078,20.4378268 36.9262398,20.3950776 C37.6843076,19.6991422 38.0385151,18.5289828 37.8685805,17.3099673 L44.20077,17.3099673 L45.2771998,17.3099673 C45.5517504,17.3099673 45.7739931,17.0874592 45.7739931,16.813174 C45.7739931,16.5386234 45.5517504,16.3163807 45.2771998,16.3163807 L44.6949081,16.3163807 C44.6404759,10.3702614 43.6163542,7.94019608 42.999279,7.01431781 C42.7048141,6.57248775 40.7356965,3.55216503 40.3392708,2.94385212 C40.5036295,3.06519608 40.5994833,3.14803922 40.6026695,3.15042892 C40.8089808,3.33151552 41.1228288,3.31027369 41.3036499,3.1036969 C41.4842055,2.89738562 41.4632292,2.58327206 41.2566524,2.4027165 C41.2128411,2.36421569 40.1637602,1.45506536 38.8292422,1.07696078 C34.3103084,-0.0900122549 13.992498,-0.118423203 6.68185662,0.57060866 C4.12327819,0.803206699 2.89496936,1.39293301 2.58616626,2.53760212 C2.58297998,2.54981618 2.57820057,2.56096814 2.57527982,2.57318219 C2.5750143,2.57424428 2.57474877,2.57530637 2.57448325,2.57636846 C2.52403391,2.77683824 2.46694649,2.98447712 2.40083129,3.22265114 C2.17088848,4.05533088 1.85597835,5.19601716 1.39609273,7.56793301 C1.38148897,7.64413807 1.36980596,7.72724673 1.3562643,7.80663807 C1.35334355,7.82389706 1.35042279,7.84089052 1.34776757,7.85788399 C0.918682598,10.4905433 1.2147406,14.8135212 1.34112949,16.336826 L0.496766748,16.336826 C0.222481618,16.336826 -2.65522876e-05,16.5593342 -2.65522876e-05,16.8338848 L-2.65522876e-05,16.8338848 Z" id="Fill-15" fill="#242D3C" mask="url(#mask-2)"></path>
            </g>
        </g>
        <g id="Group-20" transform="translate(62.000000, 11.000000)">
            <path d="M94.5031636,16.2912 L95.8653455,5.07810909 L97.5955273,5.07810909 C97.9417091,5.07810909 98.2118909,5.1592 98.4064364,5.32138182 C98.6013455,5.48356364 98.6984364,5.74865455 98.6984364,6.11629091 L98.6984364,7.39192727 C99.1311636,6.62829091 99.5995273,6.04065455 100.103891,5.62974545 C100.608618,5.21883636 101.131527,5.01301818 101.672255,5.01301818 C101.9748,5.01301818 102.273709,5.08210909 102.569709,5.21883636 L101.964255,8.32210909 C101.596255,8.16356364 101.2468,8.08429091 100.915164,8.08429091 C100.359891,8.08429091 99.8678909,8.33483636 99.4391636,8.83556364 C99.0104364,9.33665455 98.6624364,10.1424727 98.3955273,11.2526545 L97.7900727,16.2912 L94.5031636,16.2912 Z" id="Fill-17" fill="#242D3C"></path>
            <path d="M90.0049455,7.1868 C89.4496727,7.1868 88.9631273,7.40825455 88.5449455,7.85152727 C88.1271273,8.29516364 87.8136727,8.90243636 87.6042182,9.67370909 C88.3034909,9.56570909 88.8696727,9.45189091 89.3020364,9.33298182 C89.7347636,9.21407273 90.0696727,9.08461818 90.3074909,8.94389091 C90.5453091,8.80316364 90.7060364,8.65189091 90.7885818,8.48970909 C90.8714909,8.32752727 90.9129455,8.15261818 90.9129455,7.96534545 C90.9129455,7.77770909 90.8409455,7.60134545 90.6969455,7.43552727 C90.5525818,7.26970909 90.3220364,7.1868 90.0049455,7.1868 M93.9405818,7.83552727 C93.9405818,8.34716364 93.8398545,8.81589091 93.6380364,9.24098182 C93.4362182,9.66643636 93.0849455,10.0431636 92.5838545,10.3711636 C92.0827636,10.6991636 91.4085818,10.9784364 90.5616727,11.2093455 C89.7144,11.4398909 88.6493091,11.6198909 87.3664,11.7497091 C87.3809455,12.5137091 87.5485818,13.0729818 87.8693091,13.4257091 C88.1900364,13.7791636 88.6638545,13.9555273 89.2911273,13.9555273 C89.5867636,13.9555273 89.8427636,13.9304364 90.0587636,13.8798909 C90.2751273,13.8297091 90.4645818,13.7646182 90.6267636,13.6853455 C90.7885818,13.6060727 90.9347636,13.5231636 91.0645818,13.4366182 C91.1944,13.3500727 91.3184,13.2675273 91.4373091,13.1878909 C91.5565818,13.1086182 91.6805818,13.0435273 91.8107636,12.9933455 C91.9402182,12.9428 92.0882182,12.9177091 92.2540364,12.9177091 C92.3620364,12.9177091 92.4667636,12.9446182 92.5674909,12.9984364 C92.6682182,13.0526182 92.7584,13.1228 92.8376727,13.2093455 L93.7027636,14.2151636 C93.3064,14.6042545 92.9191273,14.9413455 92.5405818,15.2260727 C92.1620364,15.5111636 91.7725818,15.7449818 91.3729455,15.9289818 C90.9725818,16.1129818 90.5471273,16.2478909 90.0969455,16.3344364 C89.6464,16.4209818 89.1540364,16.4642545 88.6205818,16.4642545 C87.9573091,16.4642545 87.3482182,16.3504364 86.7933091,16.1235273 C86.2384,15.8966182 85.7605818,15.5758909 85.3609455,15.1613455 C84.9605818,14.7468 84.6504,14.2475273 84.4307636,13.6638909 C84.2107636,13.0798909 84.1009455,12.4311636 84.1009455,11.7173455 C84.1009455,11.1188 84.1674909,10.5351636 84.3009455,9.96570909 C84.4344,9.39625455 84.6253091,8.86098182 84.8744,8.35989091 C85.1227636,7.85916364 85.4271273,7.39734545 85.7878545,6.97589091 C86.1482182,6.55407273 86.5536727,6.19189091 87.0042182,5.88934545 C87.4544,5.58643636 87.9485818,5.35043636 88.4856727,5.18061818 C89.0227636,5.01189091 89.5940364,4.9268 90.1994909,4.9268 C90.7980364,4.9268 91.3296727,5.01298182 91.7944,5.18643636 C92.2591273,5.35952727 92.6500364,5.58461818 92.9674909,5.86207273 C93.2849455,6.13952727 93.5264,6.45152727 93.6922182,6.79770909 C93.8580364,7.14352727 93.9405818,7.48934545 93.9405818,7.83552727" id="Fill-15" fill="#242D3C"></path>
            <path d="M78.9112,7.44603636 C78.6802909,7.44603636 78.4388364,7.5344 78.1868364,7.71112727 C77.9341091,7.88785455 77.6912,8.12930909 77.4566545,8.43585455 C77.2224727,8.74203636 77.0028364,9.10058182 76.7973818,9.51149091 C76.5919273,9.9224 76.4202909,10.3624 76.2835636,10.8307636 L75.9486545,13.5336727 C76.1573818,13.6998545 76.3897455,13.8187636 76.6461091,13.8907636 C76.9017455,13.9627636 77.1450182,13.9991273 77.3755636,13.9991273 C77.7650182,13.9991273 78.1235636,13.8689455 78.4515636,13.6096727 C78.7795636,13.3500364 79.0624727,13.0096727 79.3002909,12.5878545 C79.5384727,12.1660364 79.7235636,11.6849455 79.8573818,11.1442182 C79.9908364,10.6038545 80.0573818,10.0522182 80.0573818,9.48967273 C80.0573818,8.77621818 79.9526545,8.25694545 79.7439273,7.93294545 C79.5344727,7.60821818 79.2570182,7.44603636 78.9112,7.44603636 L78.9112,7.44603636 Z M71.9042909,19.8485818 L73.6992,5.07803636 L75.4293818,5.07803636 C75.7755636,5.07803636 76.0457455,5.15912727 76.2402909,5.32130909 C76.4348364,5.48385455 76.5322909,5.74858182 76.5322909,6.11621818 L76.5322909,7.13258182 C77.0439273,6.44058182 77.6137455,5.89621818 78.2406545,5.49985455 C78.8679273,5.10349091 79.5384727,4.90530909 80.2522909,4.90530909 C80.7130182,4.90530909 81.1348364,4.98603636 81.5170182,5.14858182 C81.8992,5.31076364 82.2290182,5.56458182 82.5064727,5.91076364 C82.7839273,6.25658182 83.0002909,6.6984 83.1552,7.23549091 C83.3104727,7.77221818 83.3879273,8.41221818 83.3879273,9.1544 C83.3879273,10.1351273 83.2377455,11.0667636 82.9388364,11.9500364 C82.6399273,12.8325818 82.2377455,13.6096727 81.7333818,14.2798545 C81.2286545,14.9504 80.6464727,15.4824 79.9872,15.8751273 C79.3275636,16.2678545 78.6370182,16.4642182 77.9166545,16.4642182 C77.4479273,16.4642182 77.0297455,16.3885818 76.6617455,16.2373091 C76.2944727,16.0856727 75.9701091,15.8838545 75.6890182,15.6318545 L75.1697455,19.8485818 L71.9042909,19.8485818 Z" id="Fill-13" fill="#242D3C"></path>
            <path d="M55.1011636,16.2912 L56.4633455,5.07810909 L58.1935273,5.07810909 C58.5397091,5.07810909 58.8098909,5.1592 59.0044364,5.32138182 C59.1993455,5.48356364 59.2964364,5.74865455 59.2964364,6.11629091 L59.2964364,6.77592727 C59.7724364,6.14174545 60.2731636,5.6712 60.7997091,5.36465455 C61.3255273,5.05810909 61.8771636,4.90501818 62.4538909,4.90501818 C63.0880727,4.90501818 63.6142545,5.11047273 64.0328,5.52138182 C64.4506182,5.93265455 64.7171636,6.53083636 64.8328,7.31629091 C65.3302545,6.48756364 65.8742545,5.87810909 66.4655273,5.48901818 C67.0564364,5.09992727 67.7233455,4.90501818 68.4658909,4.90501818 C68.8837091,4.90501818 69.2640727,4.9792 69.6066182,5.12683636 C69.9488,5.27447273 70.2411636,5.49301818 70.4826182,5.78101818 C70.7240727,6.06938182 70.9113455,6.42247273 71.0448,6.84065455 C71.1782545,7.25883636 71.2451636,7.74174545 71.2451636,8.28974545 C71.2451636,8.42647273 71.2393455,8.56901818 71.2288,8.71665455 C71.2175273,8.86465455 71.2051636,9.01410909 71.1906182,9.16538182 L70.3473455,16.2912 L67.0386182,16.2912 L67.8818909,9.16538182 C67.8964364,9.04283636 67.9073455,8.9312 67.9142545,8.83010909 C67.9215273,8.72938182 67.9255273,8.63229091 67.9255273,8.53847273 C67.9255273,8.17083636 67.8673455,7.91483636 67.7520727,7.77047273 C67.6368,7.62647273 67.4637091,7.55447273 67.2331636,7.55447273 C67.0095273,7.55447273 66.7953455,7.61374545 66.5898909,7.73265455 C66.3844364,7.85156364 66.1895273,8.02501818 66.0058909,8.25192727 C65.8218909,8.47883636 65.6542545,8.75301818 65.5029818,9.07338182 C65.3517091,9.39447273 65.2182545,9.75338182 65.1029818,10.1493818 L64.3786182,16.2912 L61.0698909,16.2912 L61.9131636,9.16538182 C61.9273455,9.04283636 61.9386182,8.9312 61.9455273,8.83010909 C61.9528,8.72938182 61.9568,8.63229091 61.9568,8.53847273 C61.9568,8.17083636 61.8986182,7.91483636 61.7833455,7.77047273 C61.6680727,7.62647273 61.4949818,7.55447273 61.2644364,7.55447273 C61.0408,7.55447273 60.8244364,7.61592727 60.6157091,7.73810909 C60.4066182,7.86065455 60.2102545,8.03738182 60.0262545,8.26829091 C59.8426182,8.49883636 59.6749818,8.77810909 59.5233455,9.10574545 C59.3720727,9.43410909 59.2386182,9.79956364 59.1237091,10.2035636 L58.3880727,16.2912 L55.1011636,16.2912 Z" id="Fill-11" fill="#242D3C"></path>
            <path d="M48.0512727,13.8149818 C48.2963636,13.8149818 48.5341818,13.7229818 48.7650909,13.5393455 C48.9956364,13.3553455 49.2138182,13.1051636 49.4192727,12.7877091 C49.6247273,12.4706182 49.8138182,12.0993455 49.9869091,11.6738909 C50.16,11.2488 50.3076364,10.7946182 50.4301818,10.3117091 L50.8192727,7.20843636 L50.6247273,7.20843636 C50.0767273,7.20843636 49.5778182,7.33098182 49.1272727,7.57607273 C48.6767273,7.82116364 48.2890909,8.15461818 47.9647273,8.57607273 C47.6403636,8.99789091 47.3898182,9.48843636 47.2134545,10.0469818 C47.0363636,10.6055273 46.9483636,11.2018909 46.9483636,11.8364364 C46.9483636,12.1968 46.9770909,12.5033455 47.0349091,12.7553455 C47.0923636,13.0077091 47.1701818,13.2113455 47.2672727,13.3662545 C47.3647273,13.5211636 47.48,13.6349818 47.6134545,13.7069818 C47.7469091,13.7789818 47.8927273,13.8149818 48.0512727,13.8149818 L48.0512727,13.8149818 Z M52.9821818,16.2913455 L51.1872727,16.2913455 C50.9778182,16.2913455 50.8032727,16.2640727 50.6625455,16.2102545 C50.5221818,16.1557091 50.4101818,16.0818909 50.3272727,15.9884364 C50.2443636,15.8949818 50.1869091,15.7829818 50.1545455,15.6531636 C50.1218182,15.5233455 50.1058182,15.3829818 50.1058182,15.2317091 L50.1058182,14.4313455 C49.6443636,15.0655273 49.1327273,15.5633455 48.5701818,15.9237091 C48.008,16.2840727 47.388,16.4640727 46.7105455,16.4640727 C46.3069091,16.4640727 45.9174545,16.3829818 45.5429091,16.2208 C45.1676364,16.0586182 44.836,15.8135273 44.548,15.4858909 C44.2596364,15.1575273 44.0287273,14.7397091 43.856,14.2313455 C43.6829091,13.7229818 43.5963636,13.1229818 43.5963636,12.4309818 C43.5963636,11.4142545 43.7818182,10.4506182 44.1530909,9.53825455 C44.5243636,8.62661818 45.0436364,7.82843636 45.7105455,7.14334545 C46.3770909,6.45898182 47.1683636,5.91425455 48.0836364,5.51061818 C48.9989091,5.10698182 50.0047273,4.90516364 51.1007273,4.90516364 C51.6341818,4.90516364 52.1745455,4.94152727 52.7221818,5.01316364 C53.2705455,5.08552727 53.8109091,5.21534545 54.3443636,5.40261818 L52.9821818,16.2913455 Z" id="Fill-9" fill="#242D3C"></path>
            <path d="M37.8332364,13.5664 C38.2296,13.5664 38.5739636,13.5358545 38.8659636,13.4744 C39.1579636,13.4133091 39.4085091,13.3354909 39.6176,13.2416727 C39.8263273,13.1485818 40.0030545,13.0453091 40.1474182,12.9336727 C40.2914182,12.8220364 40.4212364,12.7194909 40.5365091,12.6256727 C40.6517818,12.5318545 40.7597818,12.4544 40.8608727,12.3929455 C40.9619636,12.3318545 41.0699636,12.3013091 41.1852364,12.3013091 C41.3005091,12.3013091 41.3961455,12.3209455 41.4717818,12.3609455 C41.5474182,12.4002182 41.6034182,12.4456727 41.6394182,12.4958545 L42.8721455,13.9773091 C42.1870545,14.7918545 41.3746909,15.4096727 40.4336,15.8314909 C39.4928727,16.2533091 38.4241455,16.4642182 37.2277818,16.4642182 C36.2328727,16.4642182 35.3517818,16.2893091 34.5837818,15.9394909 C33.8161455,15.5900364 33.1692364,15.1089455 32.6430545,14.4962182 C32.1168727,13.8834909 31.7186909,13.1573091 31.4481455,12.3173091 C31.1779636,11.4776727 31.0426909,10.5711273 31.0426909,9.59803636 C31.0426909,8.69694545 31.1437818,7.84276364 31.3456,7.03512727 C31.5470545,6.22785455 31.8321455,5.48203636 32.1997818,4.79694545 C32.5674182,4.11221818 33.0088727,3.49585455 33.5241455,2.94821818 C34.0394182,2.40021818 34.6110545,1.93549091 35.2383273,1.55330909 C35.8652364,1.17112727 36.5390545,0.877309091 37.2601455,0.671854545 C37.9808727,0.4664 38.7343273,0.363490909 39.5201455,0.363490909 C40.1110545,0.363490909 40.6499636,0.419854545 41.1365091,0.531127273 C41.6230545,0.643127273 42.0626909,0.798036364 42.4557818,0.996218182 C42.8485091,1.19476364 43.2001455,1.43076364 43.5099636,1.70458182 C43.8197818,1.97876364 44.0903273,2.28130909 44.3208727,2.61294545 L43.0885091,4.04021818 C43.0019636,4.14094545 42.9008727,4.23112727 42.7856,4.3104 C42.6703273,4.39003636 42.5186909,4.42930909 42.3314182,4.42930909 C42.2088727,4.42930909 42.0972364,4.40058182 41.9961455,4.34312727 C41.8950545,4.28530909 41.7925091,4.21476364 41.6881455,4.13221818 C41.5834182,4.04930909 41.4663273,3.95730909 41.3365091,3.85621818 C41.2070545,3.75549091 41.0517818,3.66349091 40.8717818,3.58058182 C40.6914182,3.49803636 40.4772364,3.42749091 40.2281455,3.36967273 C39.9797818,3.31221818 39.6859636,3.28312727 39.3470545,3.28312727 C38.6837818,3.28312727 38.0659636,3.42349091 37.4925091,3.70494545 C36.9194182,3.98603636 36.4223273,4.38821818 36.0005091,4.9104 C35.5786909,5.43330909 35.2488727,6.06749091 35.0110545,6.81367273 C34.7732364,7.55949091 34.6543273,8.39403636 34.6543273,9.31658182 C34.6543273,9.98712727 34.7354182,10.5856727 34.8976,11.1118545 C35.0597818,11.6380364 35.2812364,12.0831273 35.5626909,12.4471273 C35.8437818,12.8114909 36.1790545,13.0889455 36.5681455,13.2798545 C36.9572364,13.4707636 37.3790545,13.5664 37.8332364,13.5664" id="Fill-6" fill="#242D3C"></path>
            <path d="M23.1679273,19.2105818 C23.0526545,19.4338545 22.9101091,19.5964 22.7410182,19.6974909 C22.5712,19.7982182 22.3679273,19.8487636 22.1301091,19.8487636 L19.6213818,19.8487636 L22.1839273,15.2854909 L19.4050182,5.07821818 L22.2381091,5.07821818 C22.4759273,5.07821818 22.6544727,5.13603636 22.7733818,5.25094545 C22.8922909,5.36658182 22.9733818,5.50367273 23.0166545,5.66185455 L23.9897455,10.4953091 C24.0330182,10.7044 24.0726545,10.9116727 24.1086545,11.1171273 C24.1446545,11.3229455 24.1737455,11.5298545 24.1952,11.7389455 C24.2817455,11.5298545 24.3752,11.3193091 24.4762909,11.1065818 C24.5770182,10.8938545 24.6744727,10.6829455 24.7682909,10.4738545 L26.8442909,5.66185455 C26.9308364,5.4964 27.0570182,5.35749091 27.2228364,5.24585455 C27.3886545,5.13421818 27.5581091,5.07821818 27.7312,5.07821818 L30.4341091,5.07821818 L23.1679273,19.2105818 Z" id="Fill-3" fill="#2AB2B8"></path>
            <path d="M9.25029091,10.0627273 C9.37647273,9.83254545 9.50810909,9.60163636 9.6452,9.37072727 L14.4677455,1.07727273 C14.6117455,0.832545455 14.7921091,0.681272727 15.0084727,0.623090909 C15.2244727,0.565636364 15.4335636,0.536545455 15.6353818,0.536545455 L18.4033818,0.536545455 L16.4572,16.2910909 L13.3648364,16.2910909 L14.4677455,7.12163636 C14.4892,6.92709091 14.5233818,6.71254545 14.5702909,6.47836364 C14.6172,6.24418182 14.6692,6.00090909 14.7270182,5.74854545 L9.99101818,13.8798182 C9.84665455,14.1249091 9.65938182,14.3070909 9.42883636,14.4256364 C9.19792727,14.5449091 8.94592727,14.6045455 8.67174545,14.6045455 L8.19610909,14.6045455 C7.92192727,14.6045455 7.68265455,14.5434545 7.4772,14.4205455 C7.27174545,14.298 7.1292,14.118 7.04992727,13.8798182 L4.28192727,5.72709091 C4.26738182,5.97181818 4.25465455,6.21 4.24410909,6.44054545 C4.2332,6.67145455 4.21683636,6.88018182 4.19538182,7.06781818 L3.11392727,16.2910909 L0.00010909091,16.2910909 L1.94629091,0.547454545 L4.62774545,0.547454545 L5.02774545,0.547454545 C5.14301818,0.547454545 5.24592727,0.563818182 5.33610909,0.596181818 C5.42592727,0.628909091 5.50374545,0.681272727 5.56847273,0.753272727 C5.63356364,0.825272727 5.68738182,0.93 5.73065455,1.06709091 L8.49901818,9.36927273 C8.65029091,9.82418182 8.78010909,10.2896364 8.88810909,10.7656364 C9.00338182,10.5281818 9.12410909,10.2936364 9.25029091,10.0627273 Z" id="Fill-1" fill="#2AB2B8"></path>
        </g>
    </g>
</svg>